<?xml version="1.0" encoding="UTF-8" standalone="no"?>
<svg
   xmlns:dc="http://purl.org/dc/elements/1.1/"
   xmlns:cc="http://creativecommons.org/ns#"
   xmlns:rdf="http://www.w3.org/1999/02/22-rdf-syntax-ns#"
   xmlns:svg="http://www.w3.org/2000/svg"
   xmlns="http://www.w3.org/2000/svg"
   xmlns:sodipodi="http://sodipodi.sourceforge.net/DTD/sodipodi-0.dtd"
   xmlns:inkscape="http://www.inkscape.org/namespaces/inkscape"
   inkscape:version="1.0 (6e3e5246a0, 2020-05-07)"
   sodipodi:docname="Desktop.svg"
   xml:space="preserve"
   style="enable-background:new 0 0 480 480;"
   viewBox="0 0 480 480"
   y="0px"
   x="0px"
   id="Capa_1"
   version="1.1"><metadata
   id="metadata1854"><rdf:RDF><cc:Work
       rdf:about=""><dc:format>image/svg+xml</dc:format><dc:type
         rdf:resource="http://purl.org/dc/dcmitype/StillImage" /></cc:Work></rdf:RDF></metadata><defs
   id="defs1852" /><sodipodi:namedview
   inkscape:current-layer="Capa_1"
   inkscape:window-maximized="1"
   inkscape:window-y="27"
   inkscape:window-x="0"
   inkscape:cy="269.75081"
   inkscape:cx="269.02518"
   inkscape:zoom="0.80728024"
   inkscape:guide-bbox="true"
   showguides="true"
   showgrid="false"
   id="namedview1850"
   inkscape:window-height="704"
   inkscape:window-width="1366"
   inkscape:pageshadow="2"
   inkscape:pageopacity="0"
   guidetolerance="10"
   gridtolerance="10"
   objecttolerance="10"
   borderopacity="1"
   bordercolor="#666666"
   pagecolor="#ffffff"><sodipodi:guide
     inkscape:color="rgb(0,0,255)"
     inkscape:locked="false"
     inkscape:label=""
     id="guide2417"
     orientation="0,1"
     position="256,224" /><sodipodi:guide
     inkscape:color="rgb(0,0,255)"
     inkscape:locked="false"
     inkscape:label=""
     id="guide2419"
     orientation="-1,0"
     position="256,224" /></sodipodi:namedview>






























<g
   transform="matrix(0.68965517,0,0,0.68965517,79.448276,84.965518)"
   id="g2454"><path
     style="fill:#b3b3b3"
     d="M 354.416,444.832 309.448,354.896 H 170.552 l -44.968,89.936 z"
     id="path1783" /><path
     style="fill:#29abe2"
     d="m 56,8 h 368 c 22.091,0 40,17.909 40,40 v 272 c 0,22.091 -17.909,40 -40,40 H 56 C 33.909,360 16,342.091 16,320 V 48 C 16,25.909 33.909,8 56,8 Z"
     id="path1785" /><g
     id="g1791">
	<path
   style="fill:#e6e6e6"
   d="M 424,360 H 56 C 33.909,360 16,342.091 16,320 v -24 h 448 v 24 c 0,22.091 -17.909,40 -40,40 z"
   id="path1787" />
	<path
   style="fill:#e6e6e6"
   d="m 80,440 h 320 c 8.837,0 16,7.163 16,16 v 0 c 0,8.837 -7.163,16 -16,16 H 80 c -8.837,0 -16,-7.163 -16,-16 v 0 c 0,-8.837 7.163,-16 16,-16 z"
   id="path1789" />
</g><path
     style="fill:#fbb03b"
     d="M 180.584,296 184.768,283.128 216,270.464 V 240.8 l -31.2,-12.656 -7.568,-23.288 17.824,-28.592 -17.44,-24 -32.736,8.144 -19.816,-14.4 -2.36,-33.552 L 94.488,103.28 72.84,129.056 H 48.336 L 26.68,103.28 16,106.752 V 296 Z"
     id="path1793" /><path
     style="fill:#29abe2"
     d="M 114.576,296 C 136.81,266.129 130.619,223.89 100.748,201.656 75.229,182.661 39.904,184.088 16,205.08 V 296 Z"
     id="path1795" /><path
     d="M 216,72 H 432 V 88 H 216 Z"
     id="path1797" /><path
     d="m 216,104 h 136 v 16 H 216 Z"
     id="path1799" /><path
     d="m 216,136 h 136 v 16 H 216 Z"
     id="path1801" /><path
     d="M 280,40 H 432 V 56 H 280 Z"
     id="path1803" /><path
     d="m 248,40 h 16 v 16 h -16 z"
     id="path1805" /><path
     d="m 232,320 h 16 v 16 h -16 z"
     id="path1807" /><path
     d="M 122.344,85.656 133.656,74.344 123.312,64 133.656,53.656 122.344,42.344 l -16,16 c -3.123,3.124 -3.123,8.188 0,11.312 z"
     id="path1809" /><path
     d="m 181.656,85.656 16,-16 c 3.123,-3.124 3.123,-8.188 0,-11.312 l -16,-16 L 170.344,53.656 180.688,64 170.344,74.344 Z"
     id="path1811" /><path
     d="m 136.404,85.464 16.016,-47.998 15.17,5.062 -16.016,47.998 z"
     id="path1813" /><path
     d="m 416,184 h -16 v 64 h -16 v -80 h -16 v 80 h -16 v -40 h -16 v 40 h -16 v -48 h -16 v 48 h -16 v -32 h -16 v 32 h -16 v 16 h 176 v -16 h -16 z"
     id="path1815" /><path
     d="m 8,296 v 24 c 0.026,26.499 21.501,47.974 48,48 h 99.056 l -32,64 H 80 c -13.255,0 -24,10.745 -24,24 0,13.255 10.745,24 24,24 h 320 c 13.255,0 24,-10.745 24,-24 0,-13.255 -10.745,-24 -24,-24 h -43.056 l -32,-64 H 424 c 26.499,-0.026 47.974,-21.501 48,-48 V 48 C 471.974,21.501 450.499,0.026 424,0 H 56 C 29.501,0.026 8.026,21.501 8,48 v 157.008 0.072 z m 161.6,-88.664 7.576,23.288 c 0.729,2.246 2.412,4.056 4.6,4.944 L 208,246.2 v 18.88 l -26.24,10.632 c -2.193,0.884 -3.879,2.699 -4.6,4.952 L 174.76,288 H 128.672 C 146.6,250.464 130.704,205.501 93.168,187.573 71.121,177.043 45.335,177.861 24,189.768 V 112.56 l 18.184,21.648 c 1.52,1.811 3.764,2.856 6.128,2.856 H 72.8 c 2.364,0 4.608,-1.045 6.128,-2.856 l 18.192,-21.648 17.952,5.832 1.984,28.184 c 0.164,2.357 1.362,4.521 3.272,5.912 l 19.816,14.4 c 1.917,1.384 4.345,1.855 6.64,1.288 l 27.464,-6.824 11.104,15.272 -14.968,24 c -1.24,2.012 -1.527,4.469 -0.784,6.712 z M 24,288 v -79.2 c 25.876,-20.187 63.218,-15.575 83.404,10.302 15.586,19.978 16.789,47.642 2.996,68.898 z m 384,168 c 0,4.418 -3.582,8 -8,8 H 80 c -4.418,0 -8,-3.582 -8,-8 0,-4.418 3.582,-8 8,-8 h 320 c 4.418,0 8,3.582 8,8 z M 339.056,432 H 140.944 l 32,-64 H 307.056 Z M 424,352 H 56 C 38.327,352 24,337.673 24,320 v -16 h 90.576 0.072 H 456 v 16 c 0,17.673 -14.327,32 -32,32 z M 56,16 h 368 c 17.673,0 32,14.327 32,32 V 288 H 194.04 l 24.968,-10.12 c 3.016,-1.224 4.99,-4.153 4.992,-7.408 V 240.8 c 0.001,-3.258 -1.973,-6.191 -4.992,-7.416 l -27.808,-11.248 -5.264,-16.2 15.856,-25.44 c 1.72,-2.764 1.593,-6.294 -0.32,-8.928 l -17.44,-24 c -1.915,-2.637 -5.237,-3.849 -8.4,-3.064 l -29.088,7.2 -13.744,-9.984 -2.104,-29.84 c -0.229,-3.253 -2.41,-6.042 -5.512,-7.048 l -28.2,-9.168 c -3.103,-0.988 -6.495,-0.013 -8.6,2.472 l -19.256,22.92 H 52.064 L 32.8,98.136 C 30.694,95.648 27.297,94.672 24.192,95.664 L 24,95.736 V 48 C 24,30.327 38.327,16 56,16 Z"
     id="path1817" /><g
     id="g1819">
</g><g
     id="g1821">
</g><g
     id="g1823">
</g><g
     id="g1825">
</g><g
     id="g1827">
</g><g
     id="g1829">
</g><g
     id="g1831">
</g><g
     id="g1833">
</g><g
     id="g1835">
</g><g
     id="g1837">
</g><g
     id="g1839">
</g><g
     id="g1841">
</g><g
     id="g1843">
</g><g
     id="g1845">
</g><g
     id="g1847">
</g></g>
</svg>
