<?xml version="1.0" encoding="UTF-8" standalone="no"?>
<svg
   xmlns:dc="http://purl.org/dc/elements/1.1/"
   xmlns:cc="http://creativecommons.org/ns#"
   xmlns:rdf="http://www.w3.org/1999/02/22-rdf-syntax-ns#"
   xmlns:svg="http://www.w3.org/2000/svg"
   xmlns="http://www.w3.org/2000/svg"
   xmlns:sodipodi="http://sodipodi.sourceforge.net/DTD/sodipodi-0.dtd"
   xmlns:inkscape="http://www.inkscape.org/namespaces/inkscape"
   inkscape:version="1.0 (6e3e5246a0, 2020-05-07)"
   sodipodi:docname="Marketing.svg"
   version="1.1"
   width="512"
   viewBox="0 0 512 512"
   height="512"
   enable-background="new 0 0 512 512"
   id="Layer_1">
  <metadata
     id="metadata1101">
    <rdf:RDF>
      <cc:Work
         rdf:about="">
        <dc:format>image/svg+xml</dc:format>
        <dc:type
           rdf:resource="http://purl.org/dc/dcmitype/StillImage" />
      </cc:Work>
    </rdf:RDF>
  </metadata>
  <defs
     id="defs1099" />
  <sodipodi:namedview
     inkscape:current-layer="Layer_1"
     inkscape:window-maximized="1"
     inkscape:window-y="27"
     inkscape:window-x="0"
     inkscape:cy="286.57319"
     inkscape:cx="157.70138"
     inkscape:zoom="0.75682523"
     inkscape:guide-bbox="true"
     showguides="true"
     showgrid="false"
     id="namedview1097"
     inkscape:window-height="704"
     inkscape:window-width="1366"
     inkscape:pageshadow="2"
     inkscape:pageopacity="0"
     guidetolerance="10"
     gridtolerance="10"
     objecttolerance="10"
     borderopacity="1"
     bordercolor="#666666"
     pagecolor="#ffffff">
    <sodipodi:guide
       inkscape:color="rgb(0,0,255)"
       inkscape:locked="false"
       inkscape:label=""
       id="guide1664"
       orientation="-1,0"
       position="256,256" />
    <sodipodi:guide
       inkscape:color="rgb(0,0,255)"
       inkscape:locked="false"
       inkscape:label=""
       id="guide1666"
       orientation="0,1"
       position="256,256" />
  </sodipodi:namedview>
  <g
     transform="matrix(0.68359375,0,0,0.68359375,72.492331,80.370215)"
     id="g1094">
    <path
       id="path1052"
       fill="#f78e36"
       d="M 460.316,502.743 359.907,402.333 c -2.343,-2.343 -2.343,-6.142 0,-8.485 l 33.941,-33.941 c 2.343,-2.343 6.142,-2.343 8.485,0 l 100.409,100.409 c 2.343,2.343 2.343,6.142 0,8.485 l -33.941,33.941 c -2.343,2.344 -6.142,2.344 -8.485,10e-4 z" />
    <path
       id="path1054"
       fill="#f86f1b"
       d="m 393.848,359.907 -21.213,21.213 c 2.343,-2.343 6.142,-2.343 8.485,0 l 100.409,100.409 c 2.343,2.343 2.343,6.142 0,8.485 l 21.213,-21.213 c 2.343,-2.343 2.343,-6.142 0,-8.485 L 402.333,359.907 c -2.343,-2.343 -6.142,-2.343 -8.485,0 z" />
    <path
       id="path1056"
       transform="matrix(0.707,-0.707,0.707,0.707,-146.532,353.759)"
       fill="#4380a0"
       d="m 338.759,321.065 h 30 v 65.388 h -30 z" />
    <path
       id="path1058"
       transform="matrix(0.707,-0.707,0.707,0.707,-170.02,410.465)"
       fill="#7be492"
       d="m 380.465,395.465 h 60 v 30 h -60 z" />
    <path
       id="path1060"
       transform="matrix(0.707,-0.707,0.707,0.707,-159.414,414.859)"
       fill="#45d987"
       d="m 406.072,384.859 h 30 v 30 h -30 z" />
    <circle
       id="circle1062"
       r="195"
       fill="#43809f"
       cy="202.5"
       cx="202.5" />
    <path
       id="path1064"
       fill="#3a7190"
       d="m 202.5,7.5 c -5.047,0 -10.049,0.192 -15,0.568 100.687,7.659 180,91.783 180,194.432 0,102.649 -79.313,186.772 -180,194.432 4.951,0.376 9.953,0.568 15,0.568 107.696,0 195,-87.304 195,-195 0,-107.696 -87.304,-195 -195,-195 z" />
    <circle
       id="circle1066"
       r="165"
       fill="#f3f3f3"
       cy="202.5"
       cx="202.5" />
    <path
       id="path1068"
       fill="#e4e4e4"
       d="m 202.5,37.5 c -5.057,0 -10.058,0.242 -15,0.689 83.977,7.604 150,78.386 150,164.311 0,85.925 -66.023,156.707 -150,164.311 4.942,0.447 9.943,0.689 15,0.689 90.981,0 165,-74.019 165,-165 0,-90.981 -74.019,-165 -165,-165 z" />
    <g
       id="g1082">
      <path
         id="path1070"
         fill="#29cef6"
         d="m 175,206 h -60 v -88 c 0,-2.209 1.791,-4 4,-4 h 52 c 2.209,0 4,1.791 4,4 z" />
      <path
         id="path1072"
         fill="#22b5ed"
         d="m 145,114 v 92 h 30 v -88 c 0,-2.209 -1.791,-4 -4,-4 z" />
      <path
         id="path1074"
         fill="#7be492"
         d="m 295,206 h -60 v -50 c 0,-2.209 1.791,-4 4,-4 h 52 c 2.209,0 4,1.791 4,4 z" />
      <path
         id="path1076"
         fill="#45d987"
         d="m 265,152 v 54 h 30 v -50 c 0,-2.209 -1.791,-4 -4,-4 z" />
      <path
         id="path1078"
         fill="#f78e36"
         d="M 235,206 H 175 V 80 c 0,-2.209 1.791,-4 4,-4 h 52 c 2.209,0 4,1.791 4,4 z" />
      <path
         id="path1080"
         fill="#f86f1b"
         d="m 205,76 v 130 h 30 V 80 c 0,-2.209 -1.791,-4 -4,-4 z" />
    </g>
    <g
       id="g1092">
      <path
         id="path1084"
         d="m 508.046,455.014 -7.304,-7.305 c -2.929,-2.93 -7.678,-2.929 -10.606,-10e-4 -2.93,2.929 -2.93,7.678 -0.001,10.606 l 6.243,6.244 -31.818,31.819 -54.094,-54.093 31.819,-31.819 25.236,25.236 c 2.93,2.928 7.678,2.928 10.607,0 2.929,-2.93 2.929,-7.678 0,-10.607 l -30.526,-30.525 c -0.005,-0.005 -0.009,-0.01 -0.013,-0.015 l -21.213,-21.213 c -0.006,-0.006 -0.012,-0.01 -0.018,-0.016 l -18.721,-18.721 c -2.55,-2.551 -5.94,-3.956 -9.547,-3.956 -3.607,0 -6.997,1.405 -9.546,3.954 l -1.061,1.062 -26.837,-26.844 c 19.182,-23.966 33.036,-52.367 39.76,-83.398 h 52.845 c 4.143,0 7.5,-3.357 7.5,-7.5 0,-4.143 -3.357,-7.5 -7.5,-7.5 h -50.186 c 0.661,-4.77 1.155,-9.592 1.476,-14.461 H 489 c 4.143,0 7.5,-3.357 7.5,-7.5 0,-4.143 -3.357,-7.5 -7.5,-7.5 h -84.016 c -0.036,-4.853 -0.237,-9.675 -0.605,-14.462 h 48.873 c 4.143,0 7.5,-3.357 7.5,-7.5 0,-4.143 -3.357,-7.5 -7.5,-7.5 H 402.666 C 397.426,137.02 383.413,104.768 361.362,76.91 358.791,73.663 354.075,73.115 350.826,75.684 347.579,78.255 347.03,82.972 349.6,86.22 376.03,119.609 390,159.818 390,202.5 390,305.888 305.888,390 202.5,390 99.112,390 15,305.888 15,202.5 15,99.112 99.112,15 202.5,15 c 46.738,0 91.511,17.298 126.069,48.707 3.064,2.788 7.81,2.56 10.594,-0.505 2.786,-3.065 2.56,-7.809 -0.506,-10.595 C 301.333,18.683 252.978,0 202.5,0 90.841,0 0,90.841 0,202.5 0,301.082 70.814,383.421 164.243,401.359 v 50.599 c 0,4.143 3.357,7.5 7.5,7.5 4.143,0 7.5,-3.357 7.5,-7.5 v -48.301 c 4.773,0.548 9.595,0.932 14.462,1.141 v 82.43 c 0,4.143 3.357,7.5 7.5,7.5 4.143,0 7.5,-3.357 7.5,-7.5 v -82.332 c 4.864,-0.147 9.688,-0.457 14.462,-0.943 v 48.005 c 0,4.143 3.357,7.5 7.5,7.5 4.143,0 7.5,-3.357 7.5,-7.5 v -50.104 c 33.863,-6.042 64.83,-20.538 90.654,-41.208 l 26.844,26.838 -1.06,1.06 c -2.551,2.55 -3.956,5.94 -3.956,9.547 0,3.607 1.405,6.997 3.954,9.546 l 18.728,18.727 c 0.004,0.004 0.007,0.008 0.011,0.012 l 21.213,21.213 c 0.004,0.004 0.01,0.008 0.014,0.013 l 60.443,60.442 c 2.55,2.552 5.94,3.956 9.547,3.956 3.607,0 6.996,-1.404 9.547,-3.954 l 33.94,-33.94 c 2.55,-2.551 3.954,-5.94 3.954,-9.547 0,-3.607 -1.404,-6.997 -3.954,-9.545 z m -157.225,-114.806 26.054,26.06 -10.606,10.606 -26.06,-26.054 c 3.666,-3.405 7.206,-6.945 10.612,-10.612 z m 49.038,91.47 -10.607,-10.606 31.819,-31.819 10.606,10.607 z m -1.768,-65.407 12.374,12.374 -31.819,31.819 -12.374,-12.374 z" />
      <path
         id="path1086"
         d="M 98.056,339.792 C 128.095,362.371 164.181,374.546 202.5,375 297.617,375 375,297.617 375,202.5 375,107.383 297.617,30 202.5,30 156.597,30 113.422,47.967 80.931,80.591 48.577,113.076 30.49,156.343 30,202.42 c -0.45,42.419 14.963,83.191 43.399,114.805 2.77,3.079 7.512,3.331 10.592,0.561 3.08,-2.77 3.331,-7.513 0.561,-10.592 C 58.636,278.382 44.589,241.229 45,202.58 45.447,160.437 61.982,120.873 91.559,91.177 121.215,61.399 160.614,45 202.5,45 289.346,45 360,115.654 360,202.5 360,289.346 289.346,360 202.589,360.001 167.57,359.585 134.54,348.45 107.068,327.802 c -3.309,-2.491 -8.013,-1.822 -10.501,1.489 -2.49,3.311 -1.823,8.013 1.489,10.501 z" />
      <path
         id="path1088"
         d="m 231,68.5 h -52 c -6.341,0 -11.5,5.159 -11.5,11.5 v 26.5 H 119 c -6.341,0 -11.5,5.159 -11.5,11.5 v 80.5 H 97.462 c -4.143,0 -7.5,3.357 -7.5,7.5 0,4.143 3.357,7.5 7.5,7.5 h 215.076 c 4.143,0 7.5,-3.357 7.5,-7.5 0,-4.143 -3.357,-7.5 -7.5,-7.5 H 302.5 V 156 c 0,-6.341 -5.159,-11.5 -11.5,-11.5 H 242.5 V 80 c 0,-6.341 -5.159,-11.5 -11.5,-11.5 z m -108.5,53 h 45 v 77 h -45 z m 60,-38 h 45 v 115 h -45 z m 105,76 v 39 h -45 v -39 z" />
      <path
         id="path1090"
         d="m 289,277.053 h -35.309 l -16.04,-41.003 c -1.134,-2.897 -3.912,-4.772 -7.051,-4.768 -3.112,0.028 -5.884,1.975 -6.966,4.893 l -21.92,59.109 -15.32,-43.423 c -0.98,-2.78 -3.498,-4.728 -6.436,-4.978 -2.934,-0.254 -5.748,1.244 -7.186,3.816 l -14.712,26.353 h -35.216 c -4.143,0 -7.5,3.357 -7.5,7.5 0,4.143 3.357,7.5 7.5,7.5 h 39.618 c 2.718,0 5.224,-1.471 6.549,-3.844 l 8.763,-15.695 16.691,47.31 c 1.051,2.979 3.854,4.979 7.013,5.005 h 0.061 c 3.133,0 5.94,-1.95 7.031,-4.893 l 22.283,-60.088 10.733,27.438 c 1.125,2.875 3.896,4.768 6.984,4.768 H 289 c 4.143,0 7.5,-3.357 7.5,-7.5 0,-4.143 -3.357,-7.5 -7.5,-7.5 z" />
    </g>
  </g>
</svg>
