<?xml version="1.0" encoding="UTF-8" standalone="no"?>
<svg
   xmlns:dc="http://purl.org/dc/elements/1.1/"
   xmlns:cc="http://creativecommons.org/ns#"
   xmlns:rdf="http://www.w3.org/1999/02/22-rdf-syntax-ns#"
   xmlns:svg="http://www.w3.org/2000/svg"
   xmlns="http://www.w3.org/2000/svg"
   xmlns:sodipodi="http://sodipodi.sourceforge.net/DTD/sodipodi-0.dtd"
   xmlns:inkscape="http://www.inkscape.org/namespaces/inkscape"
   inkscape:version="1.0 (6e3e5246a0, 2020-05-07)"
   sodipodi:docname="MobApps.svg"
   id="svg947"
   version="1.1"
   width="512"
   viewBox="0 0 64 64"
   height="512">
  <metadata
     id="metadata953">
    <rdf:RDF>
      <cc:Work
         rdf:about="">
        <dc:format>image/svg+xml</dc:format>
        <dc:type
           rdf:resource="http://purl.org/dc/dcmitype/StillImage" />
      </cc:Work>
    </rdf:RDF>
  </metadata>
  <defs
     id="defs951" />
  <sodipodi:namedview
     inkscape:current-layer="svg947"
     inkscape:window-maximized="1"
     inkscape:window-y="27"
     inkscape:window-x="0"
     inkscape:cy="256"
     inkscape:cx="256"
     inkscape:zoom="1.3085938"
     inkscape:guide-bbox="true"
     showguides="true"
     showgrid="false"
     id="namedview949"
     inkscape:window-height="704"
     inkscape:window-width="1366"
     inkscape:pageshadow="2"
     inkscape:pageopacity="0"
     guidetolerance="10"
     gridtolerance="10"
     objecttolerance="10"
     borderopacity="1"
     bordercolor="#666666"
     pagecolor="#ffffff">
    <sodipodi:guide
       inkscape:color="rgb(0,0,255)"
       inkscape:locked="false"
       inkscape:label=""
       id="guide955"
       orientation="-1,0"
       position="32,32" />
    <sodipodi:guide
       inkscape:color="rgb(0,0,255)"
       inkscape:locked="false"
       inkscape:label=""
       id="guide957"
       orientation="0,1"
       position="32,32" />
  </sodipodi:namedview>
  <g
     transform="matrix(0.65576507,0,0,0.65576507,11.207657,11.503638)"
     id="Cloud">
    <rect
       id="rect912"
       y="3"
       x="3"
       width="32"
       rx="2"
       height="58"
       fill="#bdfdff" />
    <path
       id="path914"
       fill="#ff7956"
       d="M 30,3 29,7 H 9 L 8,3 Z" />
    <path
       id="path916"
       fill="#46f8ff"
       d="m 35,5 v 54 a 2.006,2.006 0 0 1 -2,2 h -4 a 2.006,2.006 0 0 0 2,-2 V 5 A 2.006,2.006 0 0 0 29,3 h 4 a 2.006,2.006 0 0 1 2,2 z" />
    <path
       id="path918"
       fill="#ff6243"
       d="M 30,3 29,7 H 26 L 27,3 Z" />
    <circle
       id="circle920"
       r="2"
       fill="#9cdd05"
       cy="11"
       cx="59" />
    <circle
       id="circle922"
       r="2"
       fill="#9cdd05"
       cy="53"
       cx="59" />
    <path
       id="path924"
       fill="#57a4ff"
       d="m 41.98,18.36 c 0.12,0.18 0.23,0.36 0.34,0.54 A 7.988,7.988 0 0 1 53.54,23.34 9.993,9.993 0 0 1 51,43 H 21 A 10,10 0 0 1 20.17,23.04 11.983,11.983 0 0 1 41.98,18.36 Z" />
    <g
       id="g932"
       fill="#006df0">
      <path
         id="path926"
         d="M 41.74,18.01 A 7.854,7.854 0 0 0 38.32,18.9 C 38.21,18.72 38.1,18.54 37.98,18.36 A 11.985,11.985 0 0 0 30,13.17 11.975,11.975 0 0 1 41.74,18.01 Z" />
      <path
         id="path928"
         d="M 61,33 A 10,10 0 0 1 51,43 H 47 A 9.993,9.993 0 0 0 49.54,23.34 8.008,8.008 0 0 0 44,18.26 7.779,7.779 0 0 1 46,18 8,8 0 0 1 53.54,23.34 9.991,9.991 0 0 1 61,33 Z" />
      <path
         id="path930"
         d="M 44,18.26 A 8.1,8.1 0 0 0 42.32,18.9 C 42.21,18.72 42.1,18.54 41.98,18.36 41.9,18.24 41.82,18.13 41.74,18.01 A 2.175,2.175 0 0 1 42,18 a 7.779,7.779 0 0 1 2,0.26 z" />
    </g>
    <circle
       id="circle934"
       r="2"
       fill="#ff3051"
       cy="5"
       cx="43" />
    <circle
       id="circle936"
       r="2"
       fill="#ff3051"
       cy="59"
       cx="43" />
    <path
       id="path938"
       d="m 59,50 a 3,3 0 0 0 -2.816,2 H 52 V 44 A 10.995,10.995 0 0 0 55.29,22.513 9.005,9.005 0 0 0 52,18.527 V 12 h 4.184 a 3,3 0 1 0 0,-2 H 51 a 1,1 0 0 0 -1,1 v 6.539 A 8.724,8.724 0 0 0 43.981,17.532 L 44,7.816 a 3,3 0 1 0 -2,0 l -0.014,7.841 A 13.1,13.1 0 0 0 36,12.364 V 5 A 3,3 0 0 0 33,2 H 5 A 3,3 0 0 0 2,5 v 54 a 3,3 0 0 0 3,3 h 28 a 3,3 0 0 0 3,-3 V 44 h 5.984 L 42,56.185 a 3,3 0 1 0 2,0 L 43.984,44 H 50 v 9 a 1,1 0 0 0 1,1 h 5.184 A 2.995,2.995 0 1 0 59,50 Z m 0,-40 a 1,1 0 1 1 -1,1 1,1 0 0 1 1,-1 z M 43,60 a 1,1 0 1 1 1,-1 1,1 0 0 1 -1,1 z M 43,4 A 1,1 0 1 1 42,5 1,1 0 0 1 43,4 Z M 42.461,19.41 A 1,1 0 0 0 43.782,19.788 6.917,6.917 0 0 1 47,19 7.01,7.01 0 0 1 53.594,23.67 1,1 0 0 0 54.283,24.305 8.994,8.994 0 0 1 52,42 H 22 a 9,9 0 0 1 -0.745,-17.961 1,1 0 0 0 0.906,-0.835 10.982,10.982 0 0 1 20.3,-3.794 z M 28.719,4 28.219,6 H 9.781 L 9.281,4 Z M 34,59 a 1,1 0 0 1 -1,1 H 5 A 1,1 0 0 1 4,59 V 5 A 1,1 0 0 1 5,4 H 7.219 L 8.03,7.242 A 1,1 0 0 0 9,8 H 29 A 1,1 0 0 0 29.97,7.242 L 30.781,4 H 33 a 1,1 0 0 1 1,1 v 7.062 C 33.667,12.036 33.336,12 33,12 A 12.936,12.936 0 0 0 20.332,22.135 11,11 0 0 0 22,44 h 12 z m 25,-5 a 1,1 0 1 1 1,-1 1,1 0 0 1 -1,1 z" />
    <path
       id="path940"
       d="m 30.293,22.293 -6,6 a 1,1 0 0 0 0,1.414 l 6,6 1.414,-1.414 L 26.414,29 31.707,23.707 Z" />
    <path
       id="path942"
       d="m 39.707,35.707 6,-6 a 1,1 0 0 0 0,-1.414 l -6,-6 -1.414,1.414 5.293,5.293 -5.293,5.293 z" />
    <path
       id="path944"
       transform="matrix(0.243,-0.97,0.97,0.243,-1.623,55.921)"
       d="m 26.754,28 h 16.492 v 2 H 26.754 Z" />
  </g>
</svg>
